<svg viewBox="0 0 875 835" fill="none" xmlns="http://www.w3.org/2000/svg">
<g clip-path="url(#clip0_33_395)">
<path d="M679.753 659.133C627.739 703.224 572.754 739.61 510.871 764.302C448.057 788.755 378.344 801.516 309.256 792.627C240.167 783.738 170.774 752.96 118.977 703.916C67.1809 654.872 32.0518 587.324 17.4321 517.132C2.81236 446.939 7.77232 373.864 28.9859 306.961C49.2699 239.819 85.8074 178.85 135.723 135.21C185.398 92.4985 249.62 66.4257 315.644 48.7485C380.977 29.902 449.281 18.761 520.258 24.1713C591.474 28.652 665.124 50.6136 706.666 100.979C747.517 150.175 756.022 228.705 770.853 301.925C785.683 375.146 808.698 443.537 795.219 503.511C781.74 563.485 731.767 615.042 679.753 659.133Z" fill="url(#paint0_linear_33_395)"/>
<path d="M813.001 221.841V174.958H805.707V221.841C803.614 222.687 801.882 224.234 800.805 226.216C799.729 228.199 799.376 230.494 799.808 232.708C800.239 234.922 801.427 236.918 803.168 238.352C804.91 239.787 807.097 240.571 809.354 240.571C811.611 240.571 813.797 239.787 815.539 238.352C817.281 236.918 818.469 234.922 818.9 232.708C819.331 230.494 818.978 228.199 817.902 226.216C816.826 224.234 815.093 222.687 813.001 221.841Z" fill="#D0E3F6"/>
<path d="M830.02 694.973H780.178V89.9091H760.727V694.973H710.885C704.978 694.973 699.129 696.135 693.672 698.395C688.215 700.654 683.256 703.965 679.08 708.14C674.903 712.314 671.59 717.27 669.329 722.724C667.069 728.178 665.905 734.024 665.905 739.927L875 739.927C875 734.024 873.837 728.178 871.576 722.724C869.316 717.27 866.003 712.314 861.826 708.14C857.649 703.965 852.691 700.654 847.233 698.395C841.776 696.135 835.927 694.973 830.02 694.973Z" fill="#D0E3F6"/>
<path d="M666.006 179.818H874.899L862.125 20.2413C861.658 14.7387 859.147 9.61004 855.088 5.86415C851.028 2.11825 845.712 0.0263531 840.187 0H700.718C695.192 0.0263562 689.877 2.11825 685.817 5.86415C681.757 9.61004 679.247 14.7387 678.78 20.2413L666.006 179.818Z" fill="#0078D4"/>
<path d="M74.2744 555.9H711.866V490.842C711.866 315.156 568.854 172.224 393.07 172.224C217.286 172.224 74.2744 315.156 74.2744 490.842V555.9Z" fill="#3F3D56"/>
<path opacity="0.2" d="M74.2744 555.9H711.866V490.842C711.866 315.156 568.854 172.224 393.07 172.224C217.286 172.224 74.2744 315.156 74.2744 490.842V555.9Z" fill="black"/>
<path d="M156.909 578.42H647.591C647.125 552.619 636.55 528.03 618.138 509.939C599.727 491.847 574.949 481.696 549.13 481.667H255.37C229.551 481.696 204.773 491.847 186.361 509.939C167.95 528.03 157.375 552.619 156.909 578.42Z" fill="#0078D4"/>
<path d="M98.4762 568.411C152.863 568.411 196.952 524.346 196.952 469.99C196.952 415.634 152.863 371.569 98.4762 371.569C44.0893 371.569 0 415.634 0 469.99C0 524.346 44.0893 568.411 98.4762 568.411Z" fill="#3F3D56"/>
<path d="M696.009 568.411C750.396 568.411 794.486 524.346 794.486 469.99C794.486 415.634 750.396 371.569 696.009 371.569C641.622 371.569 597.533 415.634 597.533 469.99C597.533 524.346 641.622 568.411 696.009 568.411Z" fill="#3F3D56"/>
<path d="M621.735 520.035V556.734H166.909V520.035H65.0942V698.908C65.0942 709.868 69.4503 720.378 77.2042 728.128C84.9581 735.877 95.4746 740.231 106.44 740.231H682.203C687.633 740.231 693.009 739.162 698.026 737.085C703.042 735.009 707.6 731.965 711.439 728.128C715.279 724.291 718.324 719.735 720.402 714.722C722.48 709.708 723.549 704.335 723.549 698.908V520.035H621.735Z" fill="#3F3D56"/>
<path opacity="0.2" d="M98.4763 490.008C109.538 490.008 118.505 481.046 118.505 469.99C118.505 458.934 109.538 449.972 98.4763 449.972C87.4146 449.972 78.4473 458.934 78.4473 469.99C78.4473 481.046 87.4146 490.008 98.4763 490.008Z" fill="black"/>
<path opacity="0.2" d="M696.01 490.008C707.071 490.008 716.039 481.046 716.039 469.99C716.039 458.934 707.071 449.972 696.01 449.972C684.948 449.972 675.98 458.934 675.98 469.99C675.98 481.046 684.948 490.008 696.01 490.008Z" fill="black"/>
<path d="M429.347 160.982C429.347 160.982 431.316 198.372 445.099 206.244C458.882 214.116 445.099 267.25 445.099 267.25L380.121 269.218L376.183 206.244C376.183 206.244 384.059 180.661 380.121 168.853C376.183 157.046 429.347 160.982 429.347 160.982Z" fill="#FFB8B8"/>
<path d="M502.2 680.517L478.573 708.068L515.985 743.491L535.675 704.133L502.2 680.517Z" fill="#FFB8B8"/>
<path d="M334.832 680.517L358.461 708.068L321.049 743.491L301.359 704.133L334.832 680.517Z" fill="#FFB8B8"/>
<path d="M489.402 419.765C489.402 419.765 631.173 466.996 623.297 512.258C615.421 557.521 554.381 716.924 554.381 716.924C554.381 716.924 520.907 716.924 495.309 681.501L513.031 642.142C513.031 642.142 505.155 620.495 518.938 616.559C532.721 612.623 540.597 543.745 540.597 543.745C540.597 543.745 440.176 535.874 418.517 498.483L379.136 404.022L489.402 419.765Z" fill="#2F2E41"/>
<path d="M347.632 419.765C347.632 419.765 205.861 466.996 213.737 512.258C221.613 557.521 282.653 716.924 282.653 716.924C282.653 716.924 316.127 716.924 341.724 681.501L324.003 642.142C324.003 642.142 331.879 620.495 318.096 616.559C304.313 612.623 296.436 543.745 296.436 543.745C296.436 543.745 396.857 535.874 418.517 498.483L457.898 404.022L347.632 419.765Z" fill="#2F2E41"/>
<path d="M509.093 728.731C509.093 728.731 528.783 711.02 530.752 724.796C532.721 738.571 528.783 793.673 528.783 793.673C528.783 793.673 548.473 835 518.938 835C489.402 835 475.619 803.513 479.557 772.026C483.495 740.539 465.774 728.731 465.774 728.731C465.774 728.731 444.114 685.437 465.774 681.501C487.433 677.565 495.309 687.405 495.309 687.405C495.309 687.405 487.433 722.828 509.093 728.731Z" fill="#2F2E41"/>
<path d="M327.941 728.731C327.941 728.731 308.251 711.02 306.282 724.796C304.313 738.571 308.251 793.673 308.251 793.673C308.251 793.673 288.56 835 318.096 835C347.632 835 361.415 803.513 357.477 772.026C353.539 740.539 371.26 728.731 371.26 728.731C371.26 728.731 392.919 685.437 371.26 681.501C349.601 677.565 341.724 687.405 341.724 687.405C341.724 687.405 349.601 722.828 327.941 728.731Z" fill="#2F2E41"/>
<path d="M398.826 183.613C423.838 183.613 444.114 163.348 444.114 138.35C444.114 113.352 423.838 93.0877 398.826 93.0877C373.815 93.0877 353.539 113.352 353.539 138.35C353.539 163.348 373.815 183.613 398.826 183.613Z" fill="#FFB8B8"/>
<path d="M405.718 216.084L378.152 194.436L311.205 225.923L309.236 405.006C309.236 405.006 267.886 424.685 279.7 450.268C279.7 450.268 315.143 458.14 330.895 473.884C346.647 489.627 435.254 467.98 472.666 456.172C510.078 444.364 519.923 430.589 519.923 430.589L482.511 377.455L504.17 241.667L437.231 196.687L405.718 216.084Z" fill="#E6E6E6"/>
<path d="M453.885 107.544C452.899 106.205 451.997 104.807 451.185 103.356C449.781 99.9374 451.999 95.9093 449.927 92.7175C447.811 89.4592 442.44 88.772 438.785 86.5585C433.156 83.1485 432.132 76.4574 426.858 72.6997C423.058 69.9923 417.638 69.2624 412.56 69.4169C407.481 69.5713 402.471 70.489 397.39 70.5897C390.532 70.7426 383.728 69.3519 377.481 66.5206L381.229 73.8479C377.064 72.9407 373.085 71.3288 369.464 69.0818C367.806 71.1368 370.839 74.2559 368.958 76.1834C368.188 76.8052 367.276 77.2278 366.303 77.4139C359.074 79.4671 352.267 82.7861 346.198 87.2168C344.794 88.1098 343.632 89.336 342.815 90.7863C341.838 92.9501 342.705 95.3399 342.631 97.6405C342.496 101.821 339.303 105.466 337.037 109.232C334.771 112.998 333.548 117.88 336.908 121.077C337.726 121.726 338.51 122.417 339.257 123.146C342.624 127.116 336.663 132.929 339.536 137.142C340.784 138.971 343.34 139.896 345.562 140.977C349.819 142.966 353.4 146.156 355.864 150.153L354.137 137.483C354.046 137.17 354.03 136.84 354.09 136.52C354.15 136.199 354.284 135.897 354.481 135.638C355.318 134.785 357.07 135.125 358.224 134.561C359.495 133.94 359.591 132.515 359.54 131.322L359.151 122.124C358.977 117.987 358.928 117.438 361.976 114.099C364.106 111.766 367.456 110.359 370.821 109.324C378.51 106.958 386.781 106.14 394.955 105.341C404.448 104.412 415.138 99.8085 422.51 104.696C428.545 108.698 430.552 115.274 433.459 121.107C436.073 126.35 442.781 141.786 448.365 133.43C451.872 128.183 457.236 113.386 453.885 107.544Z" fill="#2F2E41"/>
<path d="M406.601 125.22C406.415 125.22 406.236 125.294 406.104 125.426C405.972 125.558 405.898 125.737 405.897 125.923V144.874C405.898 145.06 405.972 145.239 406.104 145.371C406.236 145.502 406.415 145.576 406.601 145.577H439.242C439.428 145.576 439.607 145.502 439.739 145.371C439.871 145.239 439.945 145.06 439.946 144.874V125.923C439.945 125.737 439.871 125.558 439.739 125.426C439.607 125.294 439.428 125.22 439.242 125.22L406.601 125.22Z" fill="#3F3D56"/>
<path d="M410.249 126.891C409.901 126.892 409.568 127.03 409.322 127.276C409.076 127.521 408.938 127.854 408.938 128.202V142.595C408.938 142.942 409.076 143.275 409.322 143.521C409.568 143.767 409.901 143.905 410.249 143.905H435.594C435.941 143.905 436.275 143.767 436.52 143.521C436.766 143.275 436.905 142.942 436.905 142.595V128.202C436.905 127.854 436.766 127.521 436.52 127.276C436.275 127.03 435.941 126.892 435.594 126.891H410.249Z" fill="#FF6584"/>
<path d="M406.968 131.462H389.966V135.398H406.968V131.462Z" fill="#3F3D56"/>
<path d="M360.381 125.22C360.194 125.221 360.015 125.295 359.884 125.426C359.752 125.558 359.678 125.737 359.677 125.923V144.874C359.678 145.06 359.752 145.239 359.884 145.37C360.015 145.502 360.194 145.576 360.381 145.577H393.021C393.208 145.576 393.387 145.502 393.518 145.37C393.65 145.239 393.725 145.06 393.725 144.874V125.923C393.725 125.737 393.65 125.558 393.518 125.426C393.387 125.295 393.208 125.221 393.021 125.22L360.381 125.22Z" fill="#3F3D56"/>
<path d="M364.029 126.891C363.681 126.892 363.348 127.03 363.102 127.276C362.856 127.521 362.717 127.854 362.717 128.202V142.595C362.717 142.942 362.856 143.276 363.102 143.521C363.348 143.767 363.681 143.905 364.029 143.905H389.373C389.721 143.905 390.054 143.767 390.3 143.521C390.546 143.276 390.684 142.942 390.685 142.595V128.202C390.684 127.854 390.546 127.521 390.3 127.276C390.054 127.03 389.721 126.892 389.373 126.891H364.029Z" fill="#6C63FF"/>
<path d="M342.538 361.762H455.595C460.109 361.762 464.438 363.555 467.629 366.744C470.821 369.934 472.614 374.261 472.614 378.772H325.519C325.519 374.261 327.312 369.934 330.503 366.744C333.695 363.555 338.024 361.762 342.538 361.762Z" fill="#3F3D56"/>
<path d="M463.497 360.547C462.835 360.55 462.178 360.662 461.552 360.878C461.338 360.016 460.815 359.261 460.082 358.758C459.349 358.254 458.457 358.036 457.574 358.145C456.691 358.254 455.879 358.682 455.29 359.348C454.702 360.015 454.377 360.873 454.379 361.762C454.379 361.781 454.384 361.797 454.384 361.816C453.928 361.859 453.478 361.952 453.043 362.093C452.919 361.603 452.695 361.143 452.385 360.743C452.075 360.344 451.685 360.013 451.24 359.771C452.408 359.126 453.333 358.115 453.871 356.894C454.554 356.961 455.244 356.885 455.896 356.668C456.548 356.452 457.147 356.1 457.653 355.637C458.16 355.173 458.563 354.608 458.837 353.979C459.111 353.349 459.249 352.669 459.241 351.983C459.234 351.296 459.083 350.619 458.796 349.995C458.51 349.371 458.095 348.815 457.579 348.362C457.063 347.909 456.457 347.57 455.801 347.367C455.145 347.163 454.453 347.101 453.771 347.183C453.109 347.186 452.453 347.297 451.827 347.513C451.715 347.036 451.507 346.586 451.216 346.19C450.925 345.795 450.556 345.463 450.133 345.214C449.71 344.965 449.241 344.804 448.754 344.741C448.267 344.678 447.772 344.715 447.3 344.848C446.827 344.982 446.387 345.209 446.005 345.518C445.623 345.826 445.307 346.209 445.077 346.642C444.847 347.076 444.707 347.552 444.666 348.041C444.625 348.53 444.684 349.022 444.838 349.488C444.693 349.589 444.557 349.702 444.422 349.815C443.734 349.224 442.841 348.927 441.936 348.988C441.468 347.647 440.543 346.512 439.323 345.783C438.102 345.055 436.664 344.779 435.26 345.003C433.857 345.228 432.577 345.939 431.645 347.012C430.713 348.085 430.189 349.452 430.164 350.872C429.676 350.911 429.195 351.007 428.729 351.158C428.677 350.953 428.607 350.752 428.52 350.559C429 350.136 429.385 349.616 429.652 349.035C429.918 348.453 430.059 347.822 430.066 347.183C429.98 345.815 429.357 344.536 428.333 343.626C427.308 342.715 425.964 342.247 424.595 342.323C423.933 342.326 423.277 342.437 422.651 342.653C422.539 342.176 422.331 341.726 422.04 341.33C421.749 340.935 421.38 340.603 420.957 340.354C420.534 340.105 420.065 339.944 419.578 339.881C419.091 339.818 418.596 339.855 418.124 339.988C417.651 340.122 417.211 340.35 416.829 340.658C416.447 340.966 416.131 341.349 415.901 341.782C415.671 342.216 415.531 342.692 415.49 343.181C415.449 343.67 415.508 344.162 415.662 344.628C414.897 345.159 414.264 345.86 413.814 346.675C413.363 347.49 413.107 348.398 413.064 349.329C413.013 349.375 412.954 349.412 412.905 349.46C412.996 349.113 413.043 348.756 413.046 348.398C412.961 347.03 412.338 345.751 411.313 344.841C410.288 343.93 408.945 343.462 407.576 343.538C406.914 343.541 406.257 343.652 405.632 343.868C405.52 343.391 405.312 342.941 405.02 342.545C404.729 342.15 404.361 341.818 403.938 341.569C403.515 341.32 403.046 341.159 402.559 341.096C402.072 341.033 401.577 341.07 401.104 341.203C400.632 341.337 400.191 341.564 399.809 341.873C399.427 342.181 399.112 342.564 398.882 342.997C398.651 343.431 398.512 343.907 398.471 344.396C398.43 344.885 398.488 345.377 398.643 345.843C397.836 346.4 397.176 347.145 396.721 348.013C396.265 348.881 396.027 349.847 396.027 350.828C396.027 351.808 396.265 352.774 396.721 353.642C397.176 354.51 397.836 355.255 398.643 355.812C398.397 356.518 398.397 357.287 398.643 357.993C398.034 358.418 397.507 358.949 397.088 359.562C396.863 358.746 396.359 358.035 395.663 357.551C394.968 357.068 394.125 356.843 393.282 356.916C392.438 356.989 391.646 357.355 391.044 357.95C390.442 358.546 390.068 359.333 389.986 360.176C389.499 359.89 388.972 359.678 388.423 359.545C389.408 358.895 390.183 357.974 390.656 356.894C391.339 356.961 392.03 356.885 392.681 356.668C393.333 356.452 393.932 356.1 394.439 355.637C394.945 355.173 395.349 354.608 395.622 353.979C395.896 353.349 396.034 352.669 396.027 351.983C396.02 351.296 395.868 350.619 395.581 349.995C395.295 349.371 394.88 348.815 394.364 348.362C393.848 347.909 393.242 347.57 392.586 347.367C391.93 347.163 391.238 347.101 390.556 347.183C389.895 347.186 389.238 347.297 388.612 347.513C388.5 347.036 388.292 346.586 388.001 346.19C387.71 345.795 387.342 345.463 386.919 345.214C386.495 344.965 386.026 344.804 385.539 344.741C385.052 344.678 384.557 344.715 384.085 344.848C383.612 344.982 383.172 345.209 382.79 345.518C382.408 345.826 382.092 346.209 381.862 346.642C381.632 347.076 381.492 347.552 381.451 348.041C381.41 348.53 381.469 349.022 381.624 349.488C381.546 349.542 381.475 349.606 381.4 349.664C381.21 349.646 381.026 349.613 380.831 349.613C380.169 349.615 379.513 349.727 378.887 349.943C378.864 349.852 378.826 349.767 378.797 349.678C378.914 349.137 378.905 348.576 378.769 348.04C378.633 347.503 378.375 347.005 378.014 346.585C377.653 346.165 377.2 345.834 376.69 345.619C376.18 345.403 375.627 345.309 375.074 345.343C374.757 344.462 374.241 343.666 373.566 343.018C372.89 342.369 372.074 341.886 371.18 341.605C370.287 341.324 369.34 341.254 368.415 341.399C367.49 341.545 366.611 341.902 365.847 342.443C365.083 342.985 364.454 343.695 364.01 344.52C363.567 345.344 363.32 346.26 363.289 347.196C363.259 348.131 363.445 349.061 363.834 349.913C364.222 350.765 364.803 351.515 365.53 352.105C365.112 352.153 364.699 352.243 364.299 352.373C364.155 351.781 363.864 351.235 363.452 350.785C363.04 350.336 362.521 349.998 361.943 349.803C361.365 349.608 360.748 349.562 360.147 349.67C359.547 349.777 358.984 350.035 358.51 350.419C357.968 349.776 357.291 349.261 356.526 348.912C355.761 348.562 354.927 348.386 354.086 348.398C353.425 348.401 352.768 348.512 352.142 348.728C352.03 348.251 351.822 347.801 351.531 347.405C351.24 347.01 350.872 346.678 350.448 346.429C350.025 346.18 349.556 346.019 349.069 345.956C348.582 345.893 348.087 345.93 347.615 346.063C347.142 346.197 346.702 346.424 346.32 346.733C345.938 347.041 345.622 347.424 345.392 347.857C345.162 348.291 345.022 348.767 344.981 349.256C344.94 349.745 344.999 350.237 345.153 350.703C344.347 351.26 343.687 352.005 343.231 352.873C342.776 353.742 342.538 354.707 342.538 355.688C342.538 355.706 342.543 355.724 342.543 355.742C341.681 355.612 340.8 355.707 339.986 356.018C339.873 355.541 339.665 355.09 339.374 354.695C339.083 354.3 338.715 353.968 338.292 353.719C337.869 353.47 337.399 353.309 336.912 353.246C336.425 353.183 335.931 353.22 335.458 353.353C334.986 353.487 334.545 353.714 334.163 354.023C333.781 354.331 333.465 354.714 333.235 355.147C333.005 355.581 332.866 356.057 332.825 356.546C332.784 357.035 332.842 357.527 332.997 357.993C331.824 358.786 330.967 359.965 330.575 361.324C330.182 362.684 330.278 364.138 330.847 365.434C331.416 366.729 332.421 367.785 333.688 368.416C334.955 369.048 336.403 369.216 337.781 368.891C338 370.159 338.618 371.323 339.545 372.216C340.471 373.109 341.658 373.684 342.934 373.857C344.209 374.03 345.507 373.793 346.638 373.179C347.769 372.566 348.675 371.608 349.225 370.445C353.604 371.014 358.048 370.814 362.358 369.853C362.759 371.004 363.499 372.007 364.481 372.731C365.462 373.454 366.64 373.865 367.859 373.909C369.077 373.952 370.281 373.627 371.312 372.976C372.343 372.325 373.153 371.378 373.637 370.258C374.523 370.241 375.394 370.025 376.186 369.628C376.741 370.608 377.558 371.414 378.546 371.954C379.535 372.495 380.654 372.749 381.779 372.689C382.904 372.628 383.989 372.254 384.913 371.61C385.837 370.966 386.563 370.077 387.009 369.043C388.361 368.787 389.76 369.013 390.963 369.68C392.167 370.347 393.098 371.415 393.596 372.697C394.409 371.585 395.455 370.663 396.66 369.996C397.866 369.329 399.203 368.933 400.578 368.835C401.8 369.176 403.099 369.115 404.283 368.663C405.468 368.211 406.477 367.391 407.16 366.323C406.778 367.802 406.969 369.372 407.693 370.717C408.417 372.063 409.623 373.086 411.068 373.583C412.514 374.079 414.094 374.013 415.493 373.397C416.892 372.781 418.007 371.66 418.616 370.258C419.503 370.241 420.374 370.025 421.166 369.628C421.721 370.608 422.538 371.414 423.526 371.954C424.514 372.495 425.634 372.749 426.759 372.689C427.883 372.628 428.969 372.254 429.893 371.61C430.817 370.966 431.543 370.077 431.989 369.043C432.875 369.026 433.746 368.81 434.538 368.413C434.966 369.174 435.554 369.833 436.262 370.344C436.97 370.856 437.782 371.206 438.639 371.373C439.497 371.539 440.38 371.516 441.228 371.306C442.076 371.097 442.868 370.705 443.549 370.158C443.76 371.321 444.307 372.396 445.123 373.251C445.938 374.106 446.986 374.704 448.137 374.971C449.289 375.238 450.493 375.162 451.602 374.753C452.71 374.343 453.675 373.619 454.376 372.668C455.106 373.227 455.953 373.611 456.855 373.793C457.756 373.975 458.686 373.949 459.576 373.716C460.465 373.484 461.289 373.051 461.986 372.452C462.683 371.853 463.233 371.103 463.596 370.258C464.279 370.326 464.969 370.249 465.621 370.033C466.273 369.816 466.872 369.465 467.379 369.002C467.885 368.538 468.289 367.973 468.562 367.344C468.836 366.714 468.974 366.034 468.967 365.347C468.96 364.661 468.808 363.984 468.521 363.36C468.235 362.736 467.82 362.18 467.304 361.727C466.788 361.274 466.182 360.935 465.526 360.731C464.87 360.528 464.178 360.466 463.497 360.547ZM354.842 358.04C354.836 358.069 354.832 358.099 354.826 358.129C354.781 358.127 354.739 358.117 354.694 358.117C354.513 358.122 354.332 358.14 354.153 358.172C354.163 358.15 354.176 358.131 354.186 358.109C354.406 358.098 354.625 358.075 354.842 358.04ZM405.632 356.018C405.614 355.948 405.584 355.883 405.562 355.814C406.49 355.17 407.222 354.282 407.675 353.249C408.475 353.244 409.264 353.072 409.993 352.742C410.721 352.413 411.371 351.933 411.902 351.336C411.855 351.569 411.831 351.805 411.831 352.043C411.836 352.413 411.898 352.781 412.015 353.133C410.972 353.86 410.181 354.895 409.756 356.094C408.434 355.579 406.972 355.553 405.632 356.018ZM442.041 356.471C442.039 356.397 442.048 356.32 442.043 356.246C442.198 356.246 442.353 356.235 442.507 356.215C442.742 357.001 443.137 357.731 443.665 358.359C443.55 358.391 443.429 358.41 443.317 358.448C443.121 357.667 442.673 356.972 442.041 356.471Z" fill="#F9A825"/>
<path d="M337.764 367.837C336.04 367.837 334.333 368.188 332.749 368.869C331.165 369.55 329.736 370.546 328.55 371.797C327.364 373.048 326.445 374.527 325.85 376.145C325.255 377.762 324.996 379.484 325.089 381.205L333.321 494.339C333.494 497.581 334.905 500.634 337.263 502.868C339.621 505.101 342.747 506.346 345.996 506.346H452.136C455.386 506.346 458.511 505.101 460.869 502.868C463.227 500.634 464.638 497.581 464.812 494.339L473.044 381.205C473.136 379.484 472.877 377.762 472.282 376.145C471.687 374.527 470.768 373.048 469.582 371.797C468.396 370.546 466.967 369.55 465.383 368.869C463.799 368.188 462.093 367.837 460.368 367.837H337.764Z" fill="#3F3D56"/>
<path d="M351.047 367.837H343.753V506.346H351.047V367.837Z" fill="#D0E3F6"/>
<path d="M371.714 367.837H364.42V506.346H371.714V367.837Z" fill="#D0E3F6"/>
<path d="M392.38 367.837H385.086V506.346H392.38V367.837Z" fill="#D0E3F6"/>
<path d="M413.046 367.837H405.752V506.346H413.046V367.837Z" fill="#D0E3F6"/>
<path d="M433.713 367.837H426.419V506.346H433.713V367.837Z" fill="#D0E3F6"/>
<path d="M454.379 367.837H447.085V506.346H454.379V367.837Z" fill="#D0E3F6"/>
<path d="M447.068 436.493L423.439 450.268C423.439 450.268 366.337 497.499 405.718 505.37C445.099 513.242 454.944 471.916 454.944 471.916L468.727 456.172L447.068 436.493Z" fill="#FFB8B8"/>
<path d="M334.833 426.653L358.461 440.429C358.461 440.429 415.563 487.659 376.183 495.531C336.802 503.403 326.957 462.076 326.957 462.076L313.173 446.332L334.833 426.653Z" fill="#FFB8B8"/>
<path d="M478.573 239.699L504.17 241.667C504.17 241.667 523.86 259.378 521.891 282.994C521.891 282.994 539.613 334.16 535.675 355.807C535.675 355.807 539.613 391.23 533.706 405.006C527.799 418.781 478.573 471.916 478.573 471.916C478.573 471.916 433.285 436.493 435.254 434.525L494.325 375.487L464.789 336.128L478.573 239.699Z" fill="#E6E6E6"/>
<path d="M311.204 225.923L310.22 226.907C310.22 226.907 265.917 245.603 267.886 269.218C267.886 269.218 250.164 320.384 254.102 342.032C254.102 342.032 250.164 377.455 256.071 391.23C261.978 405.006 311.204 458.14 311.204 458.14C311.204 458.14 356.492 422.717 354.523 420.749L295.452 361.711L324.988 322.352L311.204 225.923Z" fill="#E6E6E6"/>
</g>
<defs>
<linearGradient id="paint0_linear_33_395" x1="129.168" y1="-84.1884" x2="712.602" y2="883.724" gradientUnits="userSpaceOnUse">
<stop stop-color="#0078D4"/>
<stop offset="1" stop-color="#3BAAFF"/>
</linearGradient>
<clipPath id="clip0_33_395">
<rect width="875" height="835" fill="white"/>
</clipPath>
</defs>
</svg>
