<!DOCTYPE svg PUBLIC "-//W3C//DTD SVG 1.1//EN" "http://www.w3.org/Graphics/SVG/1.1/DTD/svg11.dtd">
<!-- Uploaded to: SVG Repo, www.svgrepo.com, Transformed by: SVG Repo Mixer Tools -->
<svg fill="#ffc107" version="1.1" id="Capa_1" xmlns="http://www.w3.org/2000/svg" xmlns:xlink="http://www.w3.org/1999/xlink" width="800px" height="800px" viewBox="0 0 38.148 38.149" xml:space="preserve">
<g id="SVGRepo_bgCarrier" stroke-width="0"/>
<g id="SVGRepo_tracerCarrier" stroke-linecap="round" stroke-linejoin="round"/>
<g id="SVGRepo_iconCarrier"> <g> <path d="M38.148,12.892v12.363c0,1.006-0.815,1.823-1.823,1.823h-3.951c-0.267,0-0.528-0.061-0.771-0.172l-3.182-1.479v2.006 c0,1.009-0.816,1.824-1.824,1.824H1.823C0.815,29.257,0,28.442,0,27.433V10.715c0-1.009,0.815-1.824,1.823-1.824h24.774 c1.008,0,1.824,0.815,1.824,1.824v2.006l3.182-1.482c0.24-0.113,0.504-0.17,0.771-0.17h3.951 C37.333,11.068,38.148,11.885,38.148,12.892z"/> </g> </g>
</svg>